<mxfile host="65bd71144e">
    <diagram id="Tri8Yt4kodo4-GSQe-z2" name="Page-1">
        <mxGraphModel dx="1077" dy="508" grid="1" gridSize="10" guides="1" tooltips="1" connect="1" arrows="1" fold="1" page="1" pageScale="1" pageWidth="4681" pageHeight="3300" math="1" shadow="0">
            <root>
                <mxCell id="0"/>
                <mxCell id="1" parent="0"/>
                <mxCell id="38" value="" style="rounded=1;whiteSpace=wrap;html=1;fillColor=none;strokeColor=#82b366;strokeWidth=5;" vertex="1" parent="1">
                    <mxGeometry x="89" y="250" width="140" height="210" as="geometry"/>
                </mxCell>
                <mxCell id="4" value="Encoder" style="rounded=1;whiteSpace=wrap;html=1;fillColor=#d5e8d4;strokeColor=#82b366;strokeWidth=4;fontSize=15;fontStyle=1" vertex="1" parent="1">
                    <mxGeometry x="99" y="260" width="120" height="40" as="geometry"/>
                </mxCell>
                <mxCell id="10" value="Encoder" style="rounded=1;whiteSpace=wrap;html=1;fillColor=#d5e8d4;strokeColor=#82b366;strokeWidth=4;fontSize=15;fontStyle=1" vertex="1" parent="1">
                    <mxGeometry x="99" y="360" width="120" height="40" as="geometry"/>
                </mxCell>
                <mxCell id="11" value="Encoder" style="rounded=1;whiteSpace=wrap;html=1;fillColor=#d5e8d4;strokeColor=#82b366;strokeWidth=4;fontSize=15;fontStyle=1" vertex="1" parent="1">
                    <mxGeometry x="99" y="410" width="120" height="40" as="geometry"/>
                </mxCell>
                <mxCell id="20" value="Encoder" style="rounded=1;whiteSpace=wrap;html=1;fillColor=#d5e8d4;strokeColor=#82b366;strokeWidth=4;fontSize=15;fontStyle=1" vertex="1" parent="1">
                    <mxGeometry x="379" y="60" width="120" height="40" as="geometry"/>
                </mxCell>
                <mxCell id="21" value="Encoder" style="rounded=1;whiteSpace=wrap;html=1;fillColor=#d5e8d4;strokeColor=#82b366;strokeWidth=4;fontSize=15;fontStyle=1" vertex="1" parent="1">
                    <mxGeometry x="379" y="110" width="120" height="40" as="geometry"/>
                </mxCell>
                <mxCell id="22" value="Encoder" style="rounded=1;whiteSpace=wrap;html=1;fillColor=#d5e8d4;strokeColor=#82b366;strokeWidth=4;fontSize=15;fontStyle=1" vertex="1" parent="1">
                    <mxGeometry x="379" y="360" width="120" height="40" as="geometry"/>
                </mxCell>
                <mxCell id="23" value="Encoder" style="rounded=1;whiteSpace=wrap;html=1;fillColor=#d5e8d4;strokeColor=#82b366;strokeWidth=4;fontSize=15;fontStyle=1" vertex="1" parent="1">
                    <mxGeometry x="379" y="410" width="120" height="40" as="geometry"/>
                </mxCell>
                <mxCell id="24" value="Encoder" style="rounded=1;whiteSpace=wrap;html=1;fillColor=#d5e8d4;strokeColor=#82b366;strokeWidth=4;fontSize=15;fontStyle=1" vertex="1" parent="1">
                    <mxGeometry x="379" y="260" width="120" height="40" as="geometry"/>
                </mxCell>
                <mxCell id="25" value="Encoder" style="rounded=1;whiteSpace=wrap;html=1;fillColor=#d5e8d4;strokeColor=#82b366;strokeWidth=4;fontSize=15;fontStyle=1" vertex="1" parent="1">
                    <mxGeometry x="379" y="310" width="120" height="40" as="geometry"/>
                </mxCell>
                <mxCell id="39" value="" style="rounded=1;whiteSpace=wrap;html=1;fillColor=none;strokeColor=#82b366;strokeWidth=5;" vertex="1" parent="1">
                    <mxGeometry x="369" y="50" width="140" height="410" as="geometry"/>
                </mxCell>
                <mxCell id="40" value="1" style="text;html=1;align=center;verticalAlign=middle;whiteSpace=wrap;rounded=0;fontSize=15;" vertex="1" parent="1">
                    <mxGeometry x="49" y="415" width="40" height="30" as="geometry"/>
                </mxCell>
                <mxCell id="41" value="2" style="text;html=1;align=center;verticalAlign=middle;whiteSpace=wrap;rounded=0;fontSize=15;" vertex="1" parent="1">
                    <mxGeometry x="49" y="365" width="40" height="30" as="geometry"/>
                </mxCell>
                <mxCell id="43" value="12" style="text;html=1;align=center;verticalAlign=middle;whiteSpace=wrap;rounded=0;fontSize=15;" vertex="1" parent="1">
                    <mxGeometry x="49" y="265" width="40" height="30" as="geometry"/>
                </mxCell>
                <mxCell id="44" value="1" style="text;html=1;align=center;verticalAlign=middle;whiteSpace=wrap;rounded=0;fontSize=15;" vertex="1" parent="1">
                    <mxGeometry x="329" y="415" width="40" height="30" as="geometry"/>
                </mxCell>
                <mxCell id="45" value="2" style="text;html=1;align=center;verticalAlign=middle;whiteSpace=wrap;rounded=0;fontSize=15;" vertex="1" parent="1">
                    <mxGeometry x="329" y="365" width="40" height="30" as="geometry"/>
                </mxCell>
                <mxCell id="46" value="3" style="text;html=1;align=center;verticalAlign=middle;whiteSpace=wrap;rounded=0;fontSize=15;" vertex="1" parent="1">
                    <mxGeometry x="329" y="315" width="40" height="30" as="geometry"/>
                </mxCell>
                <mxCell id="47" value="4" style="text;html=1;align=center;verticalAlign=middle;whiteSpace=wrap;rounded=0;fontSize=15;" vertex="1" parent="1">
                    <mxGeometry x="329" y="265" width="40" height="30" as="geometry"/>
                </mxCell>
                <mxCell id="48" value="23" style="text;html=1;align=center;verticalAlign=middle;whiteSpace=wrap;rounded=0;fontSize=15;" vertex="1" parent="1">
                    <mxGeometry x="329" y="115" width="40" height="30" as="geometry"/>
                </mxCell>
                <mxCell id="49" value="24" style="text;html=1;align=center;verticalAlign=middle;whiteSpace=wrap;rounded=0;fontSize=15;" vertex="1" parent="1">
                    <mxGeometry x="329" y="65" width="40" height="30" as="geometry"/>
                </mxCell>
                <mxCell id="50" value="⁝" style="text;html=1;align=center;verticalAlign=middle;whiteSpace=wrap;rounded=0;fontFamily=Comic Sans MS;fontSize=50;horizontal=1;" vertex="1" parent="1">
                    <mxGeometry x="129" y="295" width="60" height="60" as="geometry"/>
                </mxCell>
                <mxCell id="51" value="⁝" style="text;html=1;align=center;verticalAlign=middle;whiteSpace=wrap;rounded=0;fontFamily=Comic Sans MS;fontSize=50;horizontal=1;" vertex="1" parent="1">
                    <mxGeometry x="409" y="150" width="60" height="60" as="geometry"/>
                </mxCell>
                <mxCell id="52" value="⁝" style="text;html=1;align=center;verticalAlign=middle;whiteSpace=wrap;rounded=0;fontFamily=Comic Sans MS;fontSize=50;horizontal=1;" vertex="1" parent="1">
                    <mxGeometry x="409" y="195" width="60" height="60" as="geometry"/>
                </mxCell>
                <mxCell id="53" value="$$BERT_{base}$$" style="text;html=1;align=center;verticalAlign=middle;whiteSpace=wrap;rounded=0;fontSize=15;" vertex="1" parent="1">
                    <mxGeometry x="104" y="460" width="110" height="30" as="geometry"/>
                </mxCell>
                <mxCell id="54" value="$$BERT_{large}$$" style="text;html=1;align=center;verticalAlign=middle;whiteSpace=wrap;rounded=0;fontSize=15;" vertex="1" parent="1">
                    <mxGeometry x="384" y="460" width="110" height="30" as="geometry"/>
                </mxCell>
            </root>
        </mxGraphModel>
    </diagram>
</mxfile>